<svg xmlns="http://www.w3.org/2000/svg" xml:space="preserve" x="0" y="0" version="1.1" viewBox="0 0 112 26"><switch><g fill="#000"><path d="m23.1 25.8-10.6-9.2h-2.2v9.2H1.5V.3h8.9v8.8h2.4L22 .3h12.3L20.5 12.7l15.4 13H23.1zm23.8 0V.3H38v25.5h8.9zm26.2 0v-7.3H59.9V.3H51v25.5h22.1zm32.9 0v-7.3H90l15.7-11.3V.3H76.5v7.3h15.2L76.1 18.9v6.9H106zM110.1.2c1 0 1.9.8 1.9 1.9 0 1.1-.9 1.9-1.9 1.9-1 0-1.9-.8-1.9-1.9 0-1 .8-1.9 1.9-1.9zm0 3.6c.9 0 1.6-.7 1.6-1.6 0-.9-.7-1.6-1.6-1.6-.9 0-1.6.7-1.6 1.6 0 .9.7 1.6 1.6 1.6zm-.8-2.8h.9c.5 0 .8.2.8.6 0 .4-.3.6-.6.6l.6 1h-.4l-.6-1h-.4v1h-.3V1zm.4 1h.4c.3 0 .6 0 .6-.4 0-.3-.3-.3-.5-.3h-.5V2z"/></g></switch></svg>