<svg xmlns="http://www.w3.org/2000/svg" width="2500" height="2500" viewBox="0 0 314 120"><rect width="6.52" height="74.04" x="-3.26" y="-37.02" fill="#ed1c24" rx=".42" transform="rotate(.1 -27706.283 67913.982)"/><path fill="#ed1c24" d="M98.33 78.34a.35.34-27.8 0 0-.63-.19c-5.4 8-15.17 9.88-23.83 7.52-10.79-2.94-14.04-15.59-6.81-23.71 5.88-6.61 20.94-7.81 29.1-7.02a1.51 1.51 0 0 0 1.65-1.61c-.42-6.54-1.09-12.85-9.16-13.82q-9.86-1.18-18.5 3.58-.55.3-.55-.33l.05-4.74q.01-.43.4-.61c9.8-4.56 28.02-6.68 32.88 5.55q1.28 3.23 1.41 12.28.21 14.9.3 29.82.01.44-.43.44h-5.48q-.52 0-.51-.52l.11-6.64Zm-1.18-22.07c-3.4 2.92-4.61 3.75-9.66 4.05-5.18.31-12.59 2.13-15.53 6.66-2.1 3.25-2.11 8.16.59 11.17 4.33 4.81 15.54 3.59 20.17-.19 5.2-4.25 5.36-14.74 4.84-21.52q-.04-.49-.41-.17ZM156.5 71.75c-.71-8.83-18.39-10.76-23.52-17.52-3.7-4.87-2.87-12.09 1.78-16.21 6.49-5.76 18.12-4.87 26.05-1.85q.59.22.5.85l-.58 3.96q-.09.6-.65.37c-5.88-2.31-20.48-4.93-22.69 4.1-1.07 4.41 1.71 6.64 5.55 8.43q9.81 4.58 12.8 6.13c7.44 3.85 10.47 12.7 5.68 19.77-5.64 8.3-20.19 7.59-28.74 5.35-3.91-1.03-2.83-2.23-2.37-5.65a.97.96-74.4 0 1 1.34-.76c5.99 2.58 17.04 4.32 22.32-.51q2.84-2.59 2.53-6.46ZM178.92 43.4c6.88-12.63 25.29-12.42 33.22-2.24q4.09 5.27 4.99 13.47c1.85 17-4.42 33.5-24.8 31.79q-9.2-.77-13.42-8.94a.22.21 31.9 0 0-.41.09v28.24q0 .51-.5.5l-5.77-.09q-.48 0-.48-.49V35.5q0-.5.5-.5h5.07q1.07 0 1.04 1.07l-.16 7.14q-.03 1.57.72.19Zm17.45-4.22c-21.12-2.02-23.26 34.28-8.62 40.48 27 11.43 30.08-38.44 8.62-40.48ZM256.79 78.52q-9.1 10.68-23.35 7.23-12.16-2.95-11.25-15.3c1.08-14.49 21.67-16.51 32.65-15.55q1.59.14 1.82-1.44c.86-6.03-1.75-13.14-9-14.01q-9.83-1.18-18.55 3.57a.41.41 0 0 1-.6-.35l-.02-4.18q0-1.03.95-1.43c10.42-4.36 28.81-6.49 32.99 7.54q.81 2.69.77 9.4-.08 15.45.34 30.92.01.59-.58.58l-5.02-.01a.6.6 0 0 1-.6-.62l.22-6.05q.04-1.25-.77-.3Zm-.58-22.4c-6.13 7.55-20.22 1.47-25.37 11.15-2.59 4.87-1.33 11.58 4.66 13.22q6.23 1.72 12.36-.3c10.12-3.34 8.43-15.84 9.13-23.75a.44.44 0 0 0-.78-.32ZM280.85 43.92c4.18-6.93 8.67-11.58 17.62-9.79q.69.14.68.85l-.09 5.54q-.01.49-.48.37c-11.17-2.78-17.71 6.52-17.78 16.42q-.09 13.79-.04 27.56 0 .62-.61.62l-5.26.01a.86.86 0 0 1-.87-.86l-.06-49.12q0-.52.52-.52h5.14q.63 0 .63.63v8.12a.32.32 0 0 0 .6.17ZM41.07 78.49q.16-.03.22-.19l15.25-42.79q.18-.51.72-.51h5.78q.7 0 .45.65L45.01 84.9q-.22.6-.87.6l-6.75-.01q-.45 0-.6-.42l-17.9-49.45q-.23-.62.43-.62h6.15q.45 0 .6.43 7.43 21.44 14.6 42.97.06.16.4.09Z"/></svg>