<svg width="697" height="950" viewBox="0 0 697 950" fill="none" xmlns="http://www.w3.org/2000/svg">
<path d="M696.871 601.078C696.871 792.867 541.499 949.514 348.436 949.514C154.86 949.514 0 792.42 0 601.078C0 470.364 76.657 333.255 151.717 227.163C164.208 239.655 177.278 253.139 190.68 267.45C103.985 380.783 48.725 484.684 48.725 601.078C48.725 695.226 92.212 781.093 163.96 837.091C149.401 808.716 141.211 776.536 141.211 742.289C141.211 607.876 208.099 490.085 290.694 382.189C301.2 395.343 311.623 408.827 321.881 422.476C222.364 558.31 187.537 665.769 191.176 744.109C196.057 847.928 268.772 900.706 348.436 900.706C431.229 900.706 501.235 844.901 505.778 743.529C513.885 561.7 307.818 319.731 178.685 190.681C244.304 104.371 318.46 27.745 348.436 0C348.436 0 696.871 323.703 696.871 601.078Z" fill="url(#paint0_linear_133_713)"/>
<path d="M505.778 743.53C503.268 799.527 480.724 841.54 447.142 868.003C447.151 868.009 447.236 868.055 447.236 868.055C616.514 738.411 517.55 174.744 348.436 0.00195312C318.461 27.746 244.304 104.372 178.685 190.683C307.818 319.732 513.885 561.701 505.778 743.53Z" fill="url(#paint1_linear_133_713)"/>
<path d="M503.371 695.893C477.755 408.785 333.851 178.884 252.781 100.364C252.779 100.367 252.777 100.369 252.775 100.371C227.755 128.871 201.844 160.221 178.685 190.682C296.839 308.76 479.29 521.347 503.268 695.929C503.28 695.924 503.371 695.893 503.371 695.893Z" fill="url(#paint2_linear_133_713)"/>
<defs>
<linearGradient id="paint0_linear_133_713" x1="249.569" y1="274.909" x2="431.563" y2="870.526" gradientUnits="userSpaceOnUse">
<stop stop-color="#FFDC00"/>
<stop offset="0.3033" stop-color="#F8B231"/>
<stop offset="0.6571" stop-color="#E52073"/>
<stop offset="1" stop-color="#662B81"/>
</linearGradient>
<linearGradient id="paint1_linear_133_713" x1="250.316" y1="189.522" x2="619.819" y2="783.759" gradientUnits="userSpaceOnUse">
<stop stop-color="#FFDC00"/>
<stop offset="0.0822" stop-color="#FFD216"/>
<stop offset="0.3033" stop-color="#F8B231"/>
<stop offset="0.6571" stop-color="#E52073"/>
<stop offset="1" stop-color="#662B81"/>
</linearGradient>
<linearGradient id="paint2_linear_133_713" x1="197.023" y1="201.68" x2="608.574" y2="647.528" gradientUnits="userSpaceOnUse">
<stop stop-color="#FFDC00"/>
<stop offset="0.3033" stop-color="#F8B231"/>
<stop offset="0.6571" stop-color="#E52073"/>
<stop offset="1" stop-color="#662B81"/>
</linearGradient>
</defs>
</svg>
